# xmcd
#
# Track frame offsets:
#	150
#	20415
#	40027
#	60127
#	77232
#	104765
#	126349
#	144138
#	162043
#	178568
#
# Disc length: 2656 seconds
#
# Revision: 13
# Processed by: cddbd v1.5.2PL0 Copyright (c) Steve Scherf et al.
# Submitted via: Jack! The Knife 20 Magnifico
#
DISCID=760a5e0a
DTITLE=Saxon - Destiny
DYEAR=1988
DGENRE=Heavy Metal
TTITLE0=Ride Like The Wind
TTITLE1=Where The Lightning Strikes
TTITLE2=I Can't Wait Anymore
TTITLE3=Calm Before The Storm
TTITLE4=S.O.S.
TTITLE5=Song For Emma
TTITLE6=For Whom The Bell Tolls
TTITLE7=We Are Strong
TTITLE8=Jericho Siren
TTITLE9=Red Alert
EXTD=Stephan Galfas
EXTT0=Christopher Cross
EXTT1=Byford, Quinn, Oliver
EXTT2=Byford, Quinn, Oliver
EXTT3=Byford, Quinn, Oliver
EXTT4=Byford, Quinn, Oliver
EXTT5=Byford, Galfas
EXTT6=Byford, Quinn, Johnson
EXTT7=Byford, Quinn
EXTT8=Byford, Quinn, Johnson
EXTT9=Byford, Quinn, Johnson
PLAYORDER=
